<mxfile host="Electron" modified="2023-05-10T09:14:21.359Z" agent="Mozilla/5.0 (X11; Linux x86_64) AppleWebKit/537.36 (KHTML, like Gecko) draw.io/21.2.8 Chrome/112.0.5615.165 Electron/24.2.0 Safari/537.36" etag="pL5grtQ6NHih_MwYsDB7" version="21.2.8" type="device" pages="2">
  <diagram name="Page-1" id="66x4gADZPro4NC6LPw2c">
    <mxGraphModel dx="2876" dy="1204" grid="1" gridSize="10" guides="1" tooltips="1" connect="1" arrows="1" fold="1" page="1" pageScale="1" pageWidth="827" pageHeight="1169" math="0" shadow="0">
      <root>
        <mxCell id="0" />
        <mxCell id="1" parent="0" />
        <mxCell id="4IzXx20uwHOz1poD9rbi-10" value="" style="group" vertex="1" connectable="0" parent="1">
          <mxGeometry x="256" y="350" width="380" height="320" as="geometry" />
        </mxCell>
        <mxCell id="4IzXx20uwHOz1poD9rbi-1" value="" style="group" vertex="1" connectable="0" parent="4IzXx20uwHOz1poD9rbi-10">
          <mxGeometry width="380" height="320" as="geometry" />
        </mxCell>
        <mxCell id="4IzXx20uwHOz1poD9rbi-2" value="" style="shape=cube;whiteSpace=wrap;html=1;boundedLbl=1;backgroundOutline=1;darkOpacity=0.05;darkOpacity2=0.1;size=10;fillColor=#bac8d3;strokeColor=#23445d;" vertex="1" parent="4IzXx20uwHOz1poD9rbi-1">
          <mxGeometry x="60" y="10" width="260" height="250" as="geometry" />
        </mxCell>
        <mxCell id="4IzXx20uwHOz1poD9rbi-3" value="" style="shape=cube;whiteSpace=wrap;html=1;boundedLbl=1;backgroundOutline=1;darkOpacity=0.05;darkOpacity2=0.1;size=10;fillColor=#b1ddf0;strokeColor=#10739e;" vertex="1" parent="4IzXx20uwHOz1poD9rbi-1">
          <mxGeometry x="70" y="20" width="260" height="250" as="geometry" />
        </mxCell>
        <mxCell id="4IzXx20uwHOz1poD9rbi-4" value="" style="shape=cube;whiteSpace=wrap;html=1;boundedLbl=1;backgroundOutline=1;darkOpacity=0.05;darkOpacity2=0.1;size=10;" vertex="1" parent="4IzXx20uwHOz1poD9rbi-1">
          <mxGeometry x="80" y="30" width="260" height="250" as="geometry" />
        </mxCell>
        <mxCell id="4IzXx20uwHOz1poD9rbi-5" value="&lt;b&gt;&lt;font style=&quot;font-size: 30px;&quot;&gt;W&#39;&lt;/font&gt;&lt;/b&gt;" style="text;html=1;strokeColor=none;fillColor=none;align=center;verticalAlign=middle;whiteSpace=wrap;rounded=0;" vertex="1" parent="4IzXx20uwHOz1poD9rbi-1">
          <mxGeometry x="180" y="303" width="60" height="30" as="geometry" />
        </mxCell>
        <mxCell id="4IzXx20uwHOz1poD9rbi-6" value="&lt;b&gt;&lt;font style=&quot;font-size: 30px;&quot;&gt;H&#39;&lt;/font&gt;&lt;/b&gt;" style="text;html=1;strokeColor=none;fillColor=none;align=center;verticalAlign=middle;whiteSpace=wrap;rounded=0;" vertex="1" parent="4IzXx20uwHOz1poD9rbi-1">
          <mxGeometry y="120" width="60" height="30" as="geometry" />
        </mxCell>
        <mxCell id="4IzXx20uwHOz1poD9rbi-7" value="&lt;b style=&quot;font-size: 30px;&quot;&gt;C&lt;sub&gt;out&lt;/sub&gt;&lt;/b&gt;" style="text;html=1;strokeColor=none;fillColor=none;align=center;verticalAlign=middle;whiteSpace=wrap;rounded=0;fontSize=20;" vertex="1" parent="4IzXx20uwHOz1poD9rbi-1">
          <mxGeometry x="332" y="6" width="60" height="30" as="geometry" />
        </mxCell>
        <mxCell id="4IzXx20uwHOz1poD9rbi-8" value="" style="shape=cube;whiteSpace=wrap;html=1;boundedLbl=1;backgroundOutline=1;darkOpacity=0.05;darkOpacity2=0.1;size=10;" vertex="1" parent="4IzXx20uwHOz1poD9rbi-10">
          <mxGeometry x="90" y="40" width="260" height="250" as="geometry" />
        </mxCell>
        <mxCell id="4IzXx20uwHOz1poD9rbi-9" value="" style="shape=cube;whiteSpace=wrap;html=1;boundedLbl=1;backgroundOutline=1;darkOpacity=0.05;darkOpacity2=0.1;size=10;fillColor=#b0e3e6;strokeColor=#0e8088;" vertex="1" parent="4IzXx20uwHOz1poD9rbi-10">
          <mxGeometry x="100" y="50" width="260" height="250" as="geometry" />
        </mxCell>
        <mxCell id="tD_yghVAK_nTMsRzhmy0-17" value="" style="group" vertex="1" connectable="0" parent="1">
          <mxGeometry x="-74" y="309" width="100" height="390" as="geometry" />
        </mxCell>
        <mxCell id="tD_yghVAK_nTMsRzhmy0-13" value="" style="shape=cube;whiteSpace=wrap;html=1;boundedLbl=1;backgroundOutline=1;darkOpacity=0.05;darkOpacity2=0.1;size=30;fillColor=#b1ddf0;strokeColor=#10739e;" vertex="1" parent="tD_yghVAK_nTMsRzhmy0-17">
          <mxGeometry y="110" width="100" height="100" as="geometry" />
        </mxCell>
        <mxCell id="tD_yghVAK_nTMsRzhmy0-15" value="" style="shape=cube;whiteSpace=wrap;html=1;boundedLbl=1;backgroundOutline=1;darkOpacity=0.05;darkOpacity2=0.1;size=30;fillColor=#bac8d3;strokeColor=#23445d;" vertex="1" parent="tD_yghVAK_nTMsRzhmy0-17">
          <mxGeometry width="100" height="100" as="geometry" />
        </mxCell>
        <mxCell id="tD_yghVAK_nTMsRzhmy0-16" value="" style="shape=cube;whiteSpace=wrap;html=1;boundedLbl=1;backgroundOutline=1;darkOpacity=0.05;darkOpacity2=0.1;size=30;fillColor=#b0e3e6;strokeColor=#0e8088;" vertex="1" parent="tD_yghVAK_nTMsRzhmy0-17">
          <mxGeometry y="290" width="100" height="100" as="geometry" />
        </mxCell>
        <mxCell id="tD_yghVAK_nTMsRzhmy0-33" value="&lt;b&gt;&lt;font style=&quot;font-size: 36px;&quot;&gt;. . .&lt;/font&gt;&lt;/b&gt;" style="text;html=1;strokeColor=none;fillColor=none;align=center;verticalAlign=middle;whiteSpace=wrap;rounded=0;rotation=90;" vertex="1" parent="tD_yghVAK_nTMsRzhmy0-17">
          <mxGeometry x="30" y="240" width="60" height="30" as="geometry" />
        </mxCell>
        <mxCell id="zLH4JwXge2nKOZklDTiY-1" style="edgeStyle=orthogonalEdgeStyle;rounded=0;orthogonalLoop=1;jettySize=auto;html=1;entryX=0.006;entryY=0.65;entryDx=0;entryDy=0;entryPerimeter=0;" edge="1" parent="1" target="4IzXx20uwHOz1poD9rbi-3">
          <mxGeometry relative="1" as="geometry">
            <mxPoint x="-232.32949871729556" y="532.3344013171584" as="sourcePoint" />
            <mxPoint x="246.012484951867" y="532.0468567757182" as="targetPoint" />
          </mxGeometry>
        </mxCell>
        <mxCell id="L5GtT11vUQguHCWSpUgu-7" value="" style="group" vertex="1" connectable="0" parent="1">
          <mxGeometry x="-570" y="360" width="380" height="320" as="geometry" />
        </mxCell>
        <mxCell id="L5GtT11vUQguHCWSpUgu-1" value="" style="shape=cube;whiteSpace=wrap;html=1;boundedLbl=1;backgroundOutline=1;darkOpacity=0.05;darkOpacity2=0.1;size=10;fillColor=#f8cecc;strokeColor=#b85450;" vertex="1" parent="L5GtT11vUQguHCWSpUgu-7">
          <mxGeometry x="60" y="10" width="260" height="250" as="geometry" />
        </mxCell>
        <mxCell id="L5GtT11vUQguHCWSpUgu-2" value="" style="shape=cube;whiteSpace=wrap;html=1;boundedLbl=1;backgroundOutline=1;darkOpacity=0.05;darkOpacity2=0.1;size=10;fillColor=#ffe6cc;strokeColor=#d79b00;" vertex="1" parent="L5GtT11vUQguHCWSpUgu-7">
          <mxGeometry x="70" y="20" width="260" height="250" as="geometry" />
        </mxCell>
        <mxCell id="L5GtT11vUQguHCWSpUgu-3" value="" style="shape=cube;whiteSpace=wrap;html=1;boundedLbl=1;backgroundOutline=1;darkOpacity=0.05;darkOpacity2=0.1;size=10;fillColor=#fff2cc;strokeColor=#d6b656;" vertex="1" parent="L5GtT11vUQguHCWSpUgu-7">
          <mxGeometry x="80" y="30" width="260" height="250" as="geometry" />
        </mxCell>
        <mxCell id="L5GtT11vUQguHCWSpUgu-4" value="&lt;b&gt;&lt;font style=&quot;font-size: 30px;&quot;&gt;W&lt;/font&gt;&lt;/b&gt;" style="text;html=1;strokeColor=none;fillColor=none;align=center;verticalAlign=middle;whiteSpace=wrap;rounded=0;" vertex="1" parent="L5GtT11vUQguHCWSpUgu-7">
          <mxGeometry x="180" y="290" width="60" height="30" as="geometry" />
        </mxCell>
        <mxCell id="L5GtT11vUQguHCWSpUgu-5" value="&lt;b&gt;&lt;font style=&quot;font-size: 30px;&quot;&gt;H&lt;/font&gt;&lt;/b&gt;" style="text;html=1;strokeColor=none;fillColor=none;align=center;verticalAlign=middle;whiteSpace=wrap;rounded=0;" vertex="1" parent="L5GtT11vUQguHCWSpUgu-7">
          <mxGeometry y="120" width="60" height="30" as="geometry" />
        </mxCell>
        <mxCell id="L5GtT11vUQguHCWSpUgu-6" value="&lt;b style=&quot;font-size: 30px;&quot;&gt;C&lt;sub style=&quot;&quot;&gt;in&lt;/sub&gt;&lt;/b&gt;" style="text;html=1;strokeColor=none;fillColor=none;align=center;verticalAlign=middle;whiteSpace=wrap;rounded=0;fontSize=20;" vertex="1" parent="L5GtT11vUQguHCWSpUgu-7">
          <mxGeometry x="320" width="60" height="30" as="geometry" />
        </mxCell>
        <mxCell id="fa-1LVLjvZmwd8tcyy5K-1" value="&lt;b&gt;&lt;font style=&quot;font-size: 30px;&quot;&gt;k&lt;/font&gt;&lt;/b&gt;" style="text;html=1;strokeColor=none;fillColor=none;align=center;verticalAlign=middle;whiteSpace=wrap;rounded=0;" vertex="1" parent="1">
          <mxGeometry x="-124" y="340" width="60" height="30" as="geometry" />
        </mxCell>
        <mxCell id="fa-1LVLjvZmwd8tcyy5K-2" value="&lt;b&gt;&lt;font style=&quot;font-size: 30px;&quot;&gt;k&lt;/font&gt;&lt;/b&gt;" style="text;html=1;strokeColor=none;fillColor=none;align=center;verticalAlign=middle;whiteSpace=wrap;rounded=0;" vertex="1" parent="1">
          <mxGeometry x="-62" y="280" width="60" height="30" as="geometry" />
        </mxCell>
        <mxCell id="fa-1LVLjvZmwd8tcyy5K-3" value="&lt;b style=&quot;font-size: 30px;&quot;&gt;C&lt;sub style=&quot;&quot;&gt;in&lt;/sub&gt;&lt;/b&gt;" style="text;html=1;strokeColor=none;fillColor=none;align=center;verticalAlign=middle;whiteSpace=wrap;rounded=0;fontSize=20;" vertex="1" parent="1">
          <mxGeometry x="6" y="300" width="60" height="30" as="geometry" />
        </mxCell>
        <mxCell id="fa-1LVLjvZmwd8tcyy5K-4" value="" style="curved=1;endArrow=none;html=1;rounded=0;endFill=0;" edge="1" parent="1">
          <mxGeometry width="50" height="50" relative="1" as="geometry">
            <mxPoint x="48" y="670" as="sourcePoint" />
            <mxPoint x="58" y="360" as="targetPoint" />
            <Array as="points">
              <mxPoint x="108" y="590" />
              <mxPoint x="108" y="430" />
            </Array>
          </mxGeometry>
        </mxCell>
        <mxCell id="fa-1LVLjvZmwd8tcyy5K-9" value="&lt;b style=&quot;font-size: 30px;&quot;&gt;C&lt;sub&gt;out&lt;/sub&gt;&lt;/b&gt;" style="text;html=1;strokeColor=none;fillColor=none;align=center;verticalAlign=middle;whiteSpace=wrap;rounded=0;fontSize=20;" vertex="1" parent="1">
          <mxGeometry x="123" y="488" width="60" height="30" as="geometry" />
        </mxCell>
      </root>
    </mxGraphModel>
  </diagram>
  <diagram id="m2cQW7KrZFjTD95BJ-4E" name="Page-2">
    <mxGraphModel dx="-110" dy="422" grid="1" gridSize="10" guides="1" tooltips="1" connect="1" arrows="1" fold="1" page="1" pageScale="1" pageWidth="827" pageHeight="1169" math="0" shadow="0">
      <root>
        <mxCell id="0" />
        <mxCell id="1" parent="0" />
        <mxCell id="tAQLiF5_e78hBvcNN1Tl-1" value="" style="group" vertex="1" connectable="0" parent="1">
          <mxGeometry x="2117" y="270" width="380" height="320" as="geometry" />
        </mxCell>
        <mxCell id="tAQLiF5_e78hBvcNN1Tl-2" value="" style="group" vertex="1" connectable="0" parent="tAQLiF5_e78hBvcNN1Tl-1">
          <mxGeometry width="380" height="320" as="geometry" />
        </mxCell>
        <mxCell id="tAQLiF5_e78hBvcNN1Tl-3" value="" style="shape=cube;whiteSpace=wrap;html=1;boundedLbl=1;backgroundOutline=1;darkOpacity=0.05;darkOpacity2=0.1;size=10;fillColor=#bac8d3;strokeColor=#23445d;" vertex="1" parent="tAQLiF5_e78hBvcNN1Tl-2">
          <mxGeometry x="60" y="10" width="260" height="250" as="geometry" />
        </mxCell>
        <mxCell id="tAQLiF5_e78hBvcNN1Tl-4" value="" style="shape=cube;whiteSpace=wrap;html=1;boundedLbl=1;backgroundOutline=1;darkOpacity=0.05;darkOpacity2=0.1;size=10;fillColor=#b1ddf0;strokeColor=#10739e;" vertex="1" parent="tAQLiF5_e78hBvcNN1Tl-2">
          <mxGeometry x="70" y="20" width="260" height="250" as="geometry" />
        </mxCell>
        <mxCell id="tAQLiF5_e78hBvcNN1Tl-5" value="" style="shape=cube;whiteSpace=wrap;html=1;boundedLbl=1;backgroundOutline=1;darkOpacity=0.05;darkOpacity2=0.1;size=10;" vertex="1" parent="tAQLiF5_e78hBvcNN1Tl-2">
          <mxGeometry x="80" y="30" width="260" height="250" as="geometry" />
        </mxCell>
        <mxCell id="tAQLiF5_e78hBvcNN1Tl-6" value="&lt;b&gt;&lt;font style=&quot;font-size: 30px;&quot;&gt;W&#39;&lt;/font&gt;&lt;/b&gt;" style="text;html=1;strokeColor=none;fillColor=none;align=center;verticalAlign=middle;whiteSpace=wrap;rounded=0;" vertex="1" parent="tAQLiF5_e78hBvcNN1Tl-2">
          <mxGeometry x="180" y="303" width="60" height="30" as="geometry" />
        </mxCell>
        <mxCell id="tAQLiF5_e78hBvcNN1Tl-7" value="&lt;b&gt;&lt;font style=&quot;font-size: 30px;&quot;&gt;H&#39;&lt;/font&gt;&lt;/b&gt;" style="text;html=1;strokeColor=none;fillColor=none;align=center;verticalAlign=middle;whiteSpace=wrap;rounded=0;" vertex="1" parent="tAQLiF5_e78hBvcNN1Tl-2">
          <mxGeometry y="120" width="60" height="30" as="geometry" />
        </mxCell>
        <mxCell id="tAQLiF5_e78hBvcNN1Tl-8" value="&lt;b style=&quot;font-size: 30px;&quot;&gt;C&lt;sub&gt;out&lt;/sub&gt;&lt;/b&gt;" style="text;html=1;strokeColor=none;fillColor=none;align=center;verticalAlign=middle;whiteSpace=wrap;rounded=0;fontSize=20;" vertex="1" parent="tAQLiF5_e78hBvcNN1Tl-2">
          <mxGeometry x="333" y="3" width="60" height="30" as="geometry" />
        </mxCell>
        <mxCell id="Aem5M7W_eRZbwuR8MGYX-1" value="" style="curved=1;endArrow=none;html=1;rounded=0;endFill=0;" edge="1" parent="tAQLiF5_e78hBvcNN1Tl-2">
          <mxGeometry width="50" height="50" relative="1" as="geometry">
            <mxPoint x="-101" y="290" as="sourcePoint" />
            <mxPoint x="-91" y="-20" as="targetPoint" />
            <Array as="points">
              <mxPoint x="-41" y="210" />
              <mxPoint x="-41" y="50" />
            </Array>
          </mxGeometry>
        </mxCell>
        <mxCell id="tAQLiF5_e78hBvcNN1Tl-9" value="" style="shape=cube;whiteSpace=wrap;html=1;boundedLbl=1;backgroundOutline=1;darkOpacity=0.05;darkOpacity2=0.1;size=10;" vertex="1" parent="tAQLiF5_e78hBvcNN1Tl-1">
          <mxGeometry x="90" y="40" width="260" height="250" as="geometry" />
        </mxCell>
        <mxCell id="tAQLiF5_e78hBvcNN1Tl-10" value="" style="shape=cube;whiteSpace=wrap;html=1;boundedLbl=1;backgroundOutline=1;darkOpacity=0.05;darkOpacity2=0.1;size=10;fillColor=#b0e3e6;strokeColor=#0e8088;" vertex="1" parent="tAQLiF5_e78hBvcNN1Tl-1">
          <mxGeometry x="100" y="50" width="260" height="250" as="geometry" />
        </mxCell>
        <mxCell id="ta9T8yQsvxKugUh9Nd6L-8" value="" style="group" vertex="1" connectable="0" parent="1">
          <mxGeometry x="1526" y="264" width="380" height="320" as="geometry" />
        </mxCell>
        <mxCell id="ta9T8yQsvxKugUh9Nd6L-9" value="" style="shape=cube;whiteSpace=wrap;html=1;boundedLbl=1;backgroundOutline=1;darkOpacity=0.05;darkOpacity2=0.1;size=10;fillColor=#f8cecc;strokeColor=#b85450;" vertex="1" parent="ta9T8yQsvxKugUh9Nd6L-8">
          <mxGeometry x="60" y="10" width="260" height="250" as="geometry" />
        </mxCell>
        <mxCell id="ta9T8yQsvxKugUh9Nd6L-10" value="" style="shape=cube;whiteSpace=wrap;html=1;boundedLbl=1;backgroundOutline=1;darkOpacity=0.05;darkOpacity2=0.1;size=10;fillColor=#ffe6cc;strokeColor=#d79b00;" vertex="1" parent="ta9T8yQsvxKugUh9Nd6L-8">
          <mxGeometry x="70" y="20" width="260" height="250" as="geometry" />
        </mxCell>
        <mxCell id="ta9T8yQsvxKugUh9Nd6L-11" value="" style="shape=cube;whiteSpace=wrap;html=1;boundedLbl=1;backgroundOutline=1;darkOpacity=0.05;darkOpacity2=0.1;size=10;fillColor=#fff2cc;strokeColor=#d6b656;" vertex="1" parent="ta9T8yQsvxKugUh9Nd6L-8">
          <mxGeometry x="80" y="30" width="260" height="250" as="geometry" />
        </mxCell>
        <mxCell id="ta9T8yQsvxKugUh9Nd6L-12" value="&lt;b&gt;&lt;font style=&quot;font-size: 30px;&quot;&gt;W&lt;/font&gt;&lt;/b&gt;" style="text;html=1;strokeColor=none;fillColor=none;align=center;verticalAlign=middle;whiteSpace=wrap;rounded=0;" vertex="1" parent="ta9T8yQsvxKugUh9Nd6L-8">
          <mxGeometry x="180" y="290" width="60" height="30" as="geometry" />
        </mxCell>
        <mxCell id="ta9T8yQsvxKugUh9Nd6L-13" value="&lt;b&gt;&lt;font style=&quot;font-size: 30px;&quot;&gt;H&lt;/font&gt;&lt;/b&gt;" style="text;html=1;strokeColor=none;fillColor=none;align=center;verticalAlign=middle;whiteSpace=wrap;rounded=0;" vertex="1" parent="ta9T8yQsvxKugUh9Nd6L-8">
          <mxGeometry x="11" y="120" width="60" height="30" as="geometry" />
        </mxCell>
        <mxCell id="ta9T8yQsvxKugUh9Nd6L-14" value="&lt;b style=&quot;font-size: 30px;&quot;&gt;C&lt;sub style=&quot;&quot;&gt;in&lt;/sub&gt;&lt;/b&gt;" style="text;html=1;strokeColor=none;fillColor=none;align=center;verticalAlign=middle;whiteSpace=wrap;rounded=0;fontSize=20;" vertex="1" parent="ta9T8yQsvxKugUh9Nd6L-8">
          <mxGeometry x="320" width="60" height="30" as="geometry" />
        </mxCell>
        <mxCell id="UZDksRgdLpu6_1tCmabi-27" style="edgeStyle=orthogonalEdgeStyle;rounded=0;orthogonalLoop=1;jettySize=auto;html=1;" edge="1" parent="1">
          <mxGeometry relative="1" as="geometry">
            <mxPoint x="1307.6705117327524" y="422.3349999999998" as="sourcePoint" />
            <mxPoint x="1596" y="422" as="targetPoint" />
          </mxGeometry>
        </mxCell>
        <mxCell id="UZDksRgdLpu6_1tCmabi-28" style="edgeStyle=orthogonalEdgeStyle;rounded=0;orthogonalLoop=1;jettySize=auto;html=1;exitX=0;exitY=0;exitDx=260;exitDy=130;exitPerimeter=0;entryX=-0.01;entryY=0.497;entryDx=0;entryDy=0;entryPerimeter=0;" edge="1" parent="1" source="ta9T8yQsvxKugUh9Nd6L-11" target="tAQLiF5_e78hBvcNN1Tl-5">
          <mxGeometry relative="1" as="geometry">
            <mxPoint x="2017.670068138369" y="422.3095864947845" as="sourcePoint" />
            <mxPoint x="2146" y="424" as="targetPoint" />
          </mxGeometry>
        </mxCell>
        <mxCell id="UZDksRgdLpu6_1tCmabi-29" value="" style="group" vertex="1" connectable="0" parent="1">
          <mxGeometry x="1956" y="230" width="60" height="355" as="geometry" />
        </mxCell>
        <mxCell id="UZDksRgdLpu6_1tCmabi-7" value="" style="shape=cube;whiteSpace=wrap;html=1;boundedLbl=1;backgroundOutline=1;darkOpacity=0.05;darkOpacity2=0.1;size=40;fillColor=#bac8d3;strokeColor=#23445d;" vertex="1" parent="UZDksRgdLpu6_1tCmabi-29">
          <mxGeometry width="60" height="60" as="geometry" />
        </mxCell>
        <mxCell id="UZDksRgdLpu6_1tCmabi-9" value="&lt;b&gt;&lt;font style=&quot;font-size: 36px;&quot;&gt;. . .&lt;/font&gt;&lt;/b&gt;" style="text;html=1;strokeColor=none;fillColor=none;align=center;verticalAlign=middle;whiteSpace=wrap;rounded=0;rotation=90;" vertex="1" parent="UZDksRgdLpu6_1tCmabi-29">
          <mxGeometry x="3" y="212" width="62" height="30" as="geometry" />
        </mxCell>
        <mxCell id="UZDksRgdLpu6_1tCmabi-24" value="" style="shape=cube;whiteSpace=wrap;html=1;boundedLbl=1;backgroundOutline=1;darkOpacity=0.05;darkOpacity2=0.1;size=40;fillColor=#b1ddf0;strokeColor=#10739e;" vertex="1" parent="UZDksRgdLpu6_1tCmabi-29">
          <mxGeometry y="100" width="60" height="60" as="geometry" />
        </mxCell>
        <mxCell id="UZDksRgdLpu6_1tCmabi-25" value="" style="shape=cube;whiteSpace=wrap;html=1;boundedLbl=1;backgroundOutline=1;darkOpacity=0.05;darkOpacity2=0.1;size=40;fillColor=#b0e3e6;strokeColor=#0e8088;" vertex="1" parent="UZDksRgdLpu6_1tCmabi-29">
          <mxGeometry y="295" width="60" height="60" as="geometry" />
        </mxCell>
        <mxCell id="rCDjmGclYJuVspbHvG3I-5" value="&lt;font style=&quot;font-size: 30px;&quot;&gt;&lt;b&gt;1&lt;/b&gt;&lt;/font&gt;" style="text;html=1;strokeColor=none;fillColor=none;align=center;verticalAlign=middle;whiteSpace=wrap;rounded=0;" vertex="1" parent="UZDksRgdLpu6_1tCmabi-29">
          <mxGeometry x="-20" y="70" width="60" height="30" as="geometry" />
        </mxCell>
        <mxCell id="ta9T8yQsvxKugUh9Nd6L-1" value="" style="group" vertex="1" connectable="0" parent="1">
          <mxGeometry x="970" y="264" width="420" height="320" as="geometry" />
        </mxCell>
        <mxCell id="ta9T8yQsvxKugUh9Nd6L-2" value="" style="shape=cube;whiteSpace=wrap;html=1;boundedLbl=1;backgroundOutline=1;darkOpacity=0.05;darkOpacity2=0.1;size=10;fillColor=#f8cecc;strokeColor=#b85450;" vertex="1" parent="ta9T8yQsvxKugUh9Nd6L-1">
          <mxGeometry x="60" y="10" width="260" height="250" as="geometry" />
        </mxCell>
        <mxCell id="ta9T8yQsvxKugUh9Nd6L-3" value="" style="shape=cube;whiteSpace=wrap;html=1;boundedLbl=1;backgroundOutline=1;darkOpacity=0.05;darkOpacity2=0.1;size=10;fillColor=#ffe6cc;strokeColor=#d79b00;" vertex="1" parent="ta9T8yQsvxKugUh9Nd6L-1">
          <mxGeometry x="70" y="20" width="260" height="250" as="geometry" />
        </mxCell>
        <mxCell id="ta9T8yQsvxKugUh9Nd6L-4" value="" style="shape=cube;whiteSpace=wrap;html=1;boundedLbl=1;backgroundOutline=1;darkOpacity=0.05;darkOpacity2=0.1;size=10;fillColor=#fff2cc;strokeColor=#d6b656;" vertex="1" parent="ta9T8yQsvxKugUh9Nd6L-1">
          <mxGeometry x="80" y="30" width="260" height="250" as="geometry" />
        </mxCell>
        <mxCell id="ta9T8yQsvxKugUh9Nd6L-5" value="&lt;b&gt;&lt;font style=&quot;font-size: 30px;&quot;&gt;W&lt;/font&gt;&lt;/b&gt;" style="text;html=1;strokeColor=none;fillColor=none;align=center;verticalAlign=middle;whiteSpace=wrap;rounded=0;" vertex="1" parent="ta9T8yQsvxKugUh9Nd6L-1">
          <mxGeometry x="180" y="290" width="60" height="30" as="geometry" />
        </mxCell>
        <mxCell id="ta9T8yQsvxKugUh9Nd6L-6" value="&lt;b&gt;&lt;font style=&quot;font-size: 30px;&quot;&gt;H&lt;/font&gt;&lt;/b&gt;" style="text;html=1;strokeColor=none;fillColor=none;align=center;verticalAlign=middle;whiteSpace=wrap;rounded=0;" vertex="1" parent="ta9T8yQsvxKugUh9Nd6L-1">
          <mxGeometry x="11" y="120" width="60" height="30" as="geometry" />
        </mxCell>
        <mxCell id="ta9T8yQsvxKugUh9Nd6L-7" value="&lt;b style=&quot;font-size: 30px;&quot;&gt;C&lt;sub style=&quot;&quot;&gt;in&lt;/sub&gt;&lt;/b&gt;" style="text;html=1;strokeColor=none;fillColor=none;align=center;verticalAlign=middle;whiteSpace=wrap;rounded=0;fontSize=20;" vertex="1" parent="ta9T8yQsvxKugUh9Nd6L-1">
          <mxGeometry x="320" width="60" height="30" as="geometry" />
        </mxCell>
        <mxCell id="rCDjmGclYJuVspbHvG3I-1" value="&lt;span style=&quot;font-size: 30px;&quot;&gt;&lt;b&gt;k&lt;/b&gt;&lt;/span&gt;" style="text;html=1;strokeColor=none;fillColor=none;align=center;verticalAlign=middle;whiteSpace=wrap;rounded=0;fontSize=20;" vertex="1" parent="ta9T8yQsvxKugUh9Nd6L-1">
          <mxGeometry x="370" y="120" width="60" height="30" as="geometry" />
        </mxCell>
        <mxCell id="7Qzzs1CwmsUikivAQ_q--1" value="" style="group" vertex="1" connectable="0" parent="1">
          <mxGeometry x="1386" y="360" width="120" height="120" as="geometry" />
        </mxCell>
        <mxCell id="UZDksRgdLpu6_1tCmabi-17" value="" style="shape=cube;whiteSpace=wrap;html=1;boundedLbl=1;backgroundOutline=1;darkOpacity=0.05;darkOpacity2=0.1;size=10;fillColor=#f8cecc;strokeColor=#b85450;" vertex="1" parent="7Qzzs1CwmsUikivAQ_q--1">
          <mxGeometry width="100" height="100" as="geometry" />
        </mxCell>
        <mxCell id="UZDksRgdLpu6_1tCmabi-18" value="" style="shape=cube;whiteSpace=wrap;html=1;boundedLbl=1;backgroundOutline=1;darkOpacity=0.05;darkOpacity2=0.1;size=10;fillColor=#ffe6cc;strokeColor=#d79b00;" vertex="1" parent="7Qzzs1CwmsUikivAQ_q--1">
          <mxGeometry x="10" y="10" width="100" height="100" as="geometry" />
        </mxCell>
        <mxCell id="UZDksRgdLpu6_1tCmabi-19" value="" style="shape=cube;whiteSpace=wrap;html=1;boundedLbl=1;backgroundOutline=1;darkOpacity=0.05;darkOpacity2=0.1;size=10;fillColor=#fff2cc;strokeColor=#d6b656;" vertex="1" parent="7Qzzs1CwmsUikivAQ_q--1">
          <mxGeometry x="20" y="20" width="100" height="100" as="geometry" />
        </mxCell>
        <mxCell id="Aem5M7W_eRZbwuR8MGYX-2" value="&lt;b style=&quot;font-size: 30px;&quot;&gt;C&lt;sub&gt;out&lt;/sub&gt;&lt;/b&gt;" style="text;html=1;strokeColor=none;fillColor=none;align=center;verticalAlign=middle;whiteSpace=wrap;rounded=0;fontSize=20;" vertex="1" parent="1">
          <mxGeometry x="2076" y="330" width="60" height="30" as="geometry" />
        </mxCell>
        <mxCell id="rCDjmGclYJuVspbHvG3I-2" value="&lt;span style=&quot;font-size: 30px;&quot;&gt;&lt;b&gt;k&lt;/b&gt;&lt;/span&gt;" style="text;html=1;strokeColor=none;fillColor=none;align=center;verticalAlign=middle;whiteSpace=wrap;rounded=0;fontSize=20;" vertex="1" parent="1">
          <mxGeometry x="1430" y="490" width="60" height="30" as="geometry" />
        </mxCell>
        <mxCell id="rCDjmGclYJuVspbHvG3I-3" value="&lt;span style=&quot;font-size: 30px;&quot;&gt;&lt;b&gt;C&lt;sub&gt;in&lt;/sub&gt;&lt;/b&gt;&lt;/span&gt;" style="text;html=1;strokeColor=none;fillColor=none;align=center;verticalAlign=middle;whiteSpace=wrap;rounded=0;fontSize=20;" vertex="1" parent="1">
          <mxGeometry x="1484" y="347" width="60" height="30" as="geometry" />
        </mxCell>
        <mxCell id="rCDjmGclYJuVspbHvG3I-4" value="&lt;b style=&quot;font-size: 30px;&quot;&gt;C&lt;sub style=&quot;&quot;&gt;in&lt;/sub&gt;&lt;/b&gt;" style="text;html=1;strokeColor=none;fillColor=none;align=center;verticalAlign=middle;whiteSpace=wrap;rounded=0;fontSize=20;" vertex="1" parent="1">
          <mxGeometry x="1990" y="330" width="60" height="30" as="geometry" />
        </mxCell>
        <mxCell id="rCDjmGclYJuVspbHvG3I-6" value="&lt;font style=&quot;font-size: 30px;&quot;&gt;&lt;b&gt;1&lt;/b&gt;&lt;/font&gt;" style="text;html=1;strokeColor=none;fillColor=none;align=center;verticalAlign=middle;whiteSpace=wrap;rounded=0;" vertex="1" parent="1">
          <mxGeometry x="1914" y="325" width="60" height="30" as="geometry" />
        </mxCell>
      </root>
    </mxGraphModel>
  </diagram>
</mxfile>
